Jump_normalized_precision_landing07_filtered_grf
version=1
nRows=25
nColumns=37
inDegrees=yes
endheader
time		1_ground_force_vx		1_ground_force_vy		1_ground_force_vz		1_ground_force_px		1_ground_force_py		1_ground_force_pz		1_ground_torque_x		1_ground_torque_y		1_ground_torque_z		2_ground_force_vx		2_ground_force_vy		2_ground_force_vz		2_ground_force_px		2_ground_force_py		2_ground_force_pz		2_ground_torque_x		2_ground_torque_y		2_ground_torque_z		3_ground_force_vx		3_ground_force_vy		3_ground_force_vz		3_ground_force_px		3_ground_force_py		3_ground_force_pz		3_ground_torque_x		3_ground_torque_y		3_ground_torque_z		4_ground_force_vx		4_ground_force_vy		4_ground_force_vz		4_ground_force_px		4_ground_force_py		4_ground_force_pz		4_ground_torque_x		4_ground_torque_y		4_ground_torque_z		
0.182000		-0.000000		0.000000		0.000000		0.096796		0.000000		0.248473		0.000000		0.000000		-0.000000		0.000000		-0.000000		-0.000000		-0.189952		0.000000		0.240771		-0.000000		0.000000		-0.000000		-63.776199		633.881807		99.217565		0.381470		1.273589		1.886741		3.739523		-37.167712		-5.817630		78.812059		507.988505		69.757221		-0.352337		1.267043		1.874569		3.973260		25.609918		3.516766		
0.184929		-0.000000		0.000000		0.000000		0.096796		0.000000		0.248473		0.000000		0.000000		-0.000000		0.000000		0.000000		-0.000000		-0.189952		0.000000		0.240771		0.000000		-0.000000		0.000000		-63.664355		636.591476		98.636927		0.381480		1.273598		1.886782		3.739966		-37.396603		-5.794431		79.150970		510.918373		68.898301		-0.352306		1.267045		1.874598		3.994049		25.781530		3.476688		
0.187859		-0.000000		0.000000		0.000000		0.096796		0.000000		0.248473		0.000000		0.000000		-0.000000		0.000000		0.000000		0.000000		-0.189952		0.000000		0.240771		0.000000		-0.000000		0.000000		-63.532665		638.952483		97.976030		0.381489		1.273601		1.886819		3.739309		-37.606492		-5.766524		79.498234		513.847561		67.949925		-0.352288		1.267045		1.874621		4.014851		25.950529		3.431633		
0.190788		0.000000		0.000000		0.000000		0.096796		0.000000		0.248473		0.000000		0.000000		-0.000000		0.000000		0.000000		0.000000		-0.189952		0.000000		0.240771		0.000000		-0.000000		0.000000		-63.417349		640.947352		97.170612		0.381498		1.273600		1.886855		3.739273		-37.792145		-5.729465		79.852525		516.751867		66.900986		-0.352282		1.267042		1.874642		4.036016		26.118385		3.381402		
0.193717		0.000000		-0.000000		-0.000000		0.096796		0.000000		0.248473		-0.000000		-0.000000		0.000000		0.000000		0.000000		0.000000		-0.189952		0.000000		0.240771		0.000000		-0.000000		0.000000		-63.326264		642.563146		96.183197		0.381504		1.273597		1.886890		3.740136		-37.950661		-5.680711		80.214284		519.608397		65.757191		-0.352286		1.267038		1.874664		4.057935		26.286304		3.326569		
0.196646		0.000000		-0.000000		-0.000000		0.096796		0.000000		0.248473		-0.000000		-0.000000		0.000000		0.000000		0.000000		0.000000		-0.189952		0.000000		0.240771		0.000000		-0.000000		0.000000		-63.236505		643.788992		95.011724		0.381507		1.273589		1.886922		3.740701		-38.082780		-5.620336		80.589201		522.403823		64.537543		-0.352298		1.267032		1.874686		4.081119		26.455062		3.268246		
0.199576		0.000000		-0.000000		-0.000000		0.096796		0.000000		0.248473		-0.000000		-0.000000		0.000000		-0.000000		-0.000000		0.000000		-0.189952		0.000000		0.240771		-0.000000		0.000000		-0.000000		-63.105338		644.616880		93.684616		0.381505		1.273580		1.886954		3.738892		-38.192533		-5.550665		80.987376		525.135573		63.269175		-0.352312		1.267026		1.874711		4.106170		26.625088		3.207833		
0.202505		0.000000		-0.000000		-0.000000		0.096796		0.000000		0.248473		-0.000000		-0.000000		0.000000		-0.000000		-0.000000		-0.000000		-0.189952		0.000000		0.240771		-0.000000		0.000000		-0.000000		-62.889446		645.044676		92.243192		0.381499		1.273569		1.886983		3.732672		-38.285277		-5.474902		81.420050		527.806273		61.977435		-0.352325		1.267021		1.874735		4.133680		26.796624		3.146583		
0.205434		0.000000		-0.000000		-0.000000		0.096796		0.000000		0.248473		-0.000000		-0.000000		0.000000		-0.000000		-0.000000		-0.000000		-0.189952		0.000000		0.240771		-0.000000		0.000000		-0.000000		-62.561534		645.076285		90.723019		0.381489		1.273560		1.887011		3.720768		-38.365095		-5.395636		81.895505		530.414304		60.674887		-0.352331		1.267015		1.874758		4.164088		26.969637		3.085097		
0.208364		-0.000000		0.000000		-0.000000		0.096796		0.000000		0.248473		0.000000		0.000000		-0.000000		-0.000000		-0.000000		-0.000000		-0.189952		0.000000		0.240771		-0.000000		0.000000		-0.000000		-62.120360		644.725372		89.138165		0.381478		1.273553		1.887039		3.703104		-38.433218		-5.313682		82.414653		532.946678		59.343877		-0.352330		1.267010		1.874780		4.197454		27.143466		3.022437		
0.211293		-0.000000		0.000000		0.000000		0.096796		0.000000		0.248473		0.000000		0.000000		-0.000000		-0.000000		-0.000000		-0.000000		-0.189952		0.000000		0.240771		-0.000000		0.000000		-0.000000		-61.584600		644.007504		87.485745		0.381465		1.273550		1.887066		3.680473		-38.487750		-5.228399		82.966743		535.372491		57.954243		-0.352323		1.267005		1.874801		4.233231		27.316433		2.957011		
0.214222		-0.000000		0.000000		0.000000		0.096796		0.000000		0.248473		0.000000		0.000000		-0.000000		-0.000000		-0.000000		-0.000000		-0.189952		0.000000		0.240771		-0.000000		0.000000		-0.000000		-60.986372		642.938407		85.752211		0.381452		1.273550		1.887093		3.654304		-38.524883		-5.138273		83.528659		537.644664		56.477510		-0.352314		1.266999		1.874825		4.270186		27.485682		2.887264		
0.217152		-0.000000		0.000000		0.000000		0.096796		0.000000		0.248473		0.000000		0.000000		-0.000000		0.000000		0.000000		-0.000000		-0.189952		0.000000		0.240771		0.000000		-0.000000		0.000000		-60.363036		641.531022		83.920710		0.381440		1.273553		1.887121		3.626359		-38.540507		-5.041604		84.070487		539.705667		54.906452		-0.352308		1.266990		1.874852		4.306677		27.647489		2.812690		
0.220081		-0.000000		0.000000		0.000000		0.096796		0.000000		0.248473		0.000000		0.000000		-0.000000		0.000000		0.000000		0.000000		-0.189952		0.000000		0.240771		0.000000		-0.000000		0.000000		-59.748539		639.790797		81.974595		0.381431		1.273557		1.887149		3.598360		-38.531451		-4.936925		84.564729		541.495829		53.268171		-0.352311		1.266978		1.874884		4.341198		27.798120		2.734563		
0.223010		0.000000		0.000000		0.000000		0.096796		0.000000		0.248473		0.000000		0.000000		-0.000000		0.000000		0.000000		0.000000		-0.189952		0.000000		0.240771		0.000000		-0.000000		0.000000		-59.163489		637.711617		79.895951		0.381424		1.273564		1.887180		3.571446		-38.495911		-4.822976		84.992439		542.963574		51.623831		-0.352331		1.266959		1.874921		4.372747		27.934746		2.655977		
0.225939		0.000000		-0.000000		-0.000000		0.096796		0.000000		0.248473		-0.000000		-0.000000		0.000000		0.000000		0.000000		0.000000		-0.189952		0.000000		0.240771		0.000000		-0.000000		0.000000		-58.605904		635.277019		77.671957		0.381423		1.273574		1.887216		3.545566		-38.433275		-4.699033		85.343535		544.075970		50.018071		-0.352365		1.266936		1.874962		4.400855		28.056018		2.579249		
0.228869		0.000000		-0.000000		-0.000000		0.096796		0.000000		0.248473		-0.000000		-0.000000		0.000000		0.000000		0.000000		0.000000		-0.189952		0.000000		0.240771		0.000000		-0.000000		0.000000		-58.052795		632.476074		75.298048		0.381428		1.273585		1.887255		3.519516		-38.344573		-4.565027		85.612033		544.822824		48.475293		-0.352411		1.266913		1.875005		4.425281		28.161857		2.505683		
0.231798		0.000000		-0.000000		-0.000000		0.096796		0.000000		0.248473		-0.000000		-0.000000		0.000000		-0.000000		-0.000000		0.000000		-0.189952		0.000000		0.240771		0.000000		-0.000000		-0.000000		-57.472683		629.312303		72.785067		0.381436		1.273600		1.887298		3.491645		-38.232688		-4.421918		85.791300		545.207647		46.982831		-0.352461		1.266893		1.875050		4.445671		28.252441		2.434630		
0.234727		0.000000		-0.000000		-0.000000		0.096796		0.000000		0.248473		-0.000000		-0.000000		0.000000		-0.000000		-0.000000		-0.000000		-0.189952		0.000000		0.240771		-0.000000		0.000000		-0.000000		-56.842517		625.808560		70.158383		0.381446		1.273616		1.887342		3.460830		-38.102058		-4.271558		85.871063		545.236691		45.495760		-0.352508		1.266881		1.875096		4.461354		28.327280		2.363690		
0.237657		0.000000		-0.000000		-0.000000		0.096796		0.000000		0.248473		-0.000000		-0.000000		0.000000		-0.000000		-0.000000		-0.000000		-0.189952		0.000000		0.240771		-0.000000		0.000000		-0.000000		-56.156386		622.004947		67.446226		0.381454		1.273634		1.887385		3.426879		-37.957140		-4.115827		85.837259		544.910046		43.950484		-0.352545		1.266879		1.875145		4.471348		28.384904		2.289423		
0.240586		-0.000000		0.000000		0.000000		0.096796		0.000000		0.248473		0.000000		0.000000		-0.000000		-0.000000		-0.000000		-0.000000		-0.189952		0.000000		0.240771		-0.000000		0.000000		-0.000000		-55.422258		617.954726		64.672143		0.381456		1.273652		1.887425		3.390245		-37.801018		-3.956070		85.675997		544.219229		42.294432		-0.352570		1.266886		1.875198		4.474664		28.423347		2.208942		
0.243515		-0.000000		0.000000		0.000000		0.096796		0.000000		0.248473		0.000000		0.000000		-0.000000		-0.000000		-0.000000		-0.000000		-0.189952		0.000000		0.240771		-0.000000		0.000000		-0.000000		-54.652611		613.720123		61.855231		0.381451		1.273669		1.887463		3.351479		-37.635354		-3.793168		85.380935		543.152238		40.513917		-0.352583		1.266899		1.875253		4.470814		28.441156		2.121436		
0.246444		-0.000000		0.000000		0.000000		0.096796		0.000000		0.248473		0.000000		0.000000		-0.000000		-0.000000		-0.000000		-0.000000		-0.189952		0.000000		0.240771		-0.000000		0.000000		-0.000000		-53.860449		609.366650		59.019958		0.381437		1.273684		1.887497		3.311119		-37.461364		-3.628304		84.959964		541.705123		38.611826		-0.352589		1.266915		1.875310		4.460222		28.438398		2.027040		
0.249374		-0.000000		0.000000		0.000000		0.096796		0.000000		0.248473		0.000000		0.000000		-0.000000		0.000000		0.000000		-0.000000		-0.189952		0.000000		0.240771		0.000000		-0.000000		0.000000		-53.066450		604.956438		56.207869		0.381416		1.273696		1.887528		3.270268		-37.280993		-3.463859		84.438125		539.895945		36.610131		-0.352586		1.266929		1.875367		4.444361		28.417171		1.926956		
0.252303		-0.000000		0.000000		0.000000		0.096796		0.000000		0.248473		0.000000		0.000000		-0.000000		0.000000		0.000000		0.000000		-0.189952		0.000000		0.240771		0.000000		-0.000000		0.000000		-52.304194		600.539864		53.475995		0.381389		1.273708		1.887554		3.230984		-37.097115		-3.303367		83.853712		537.766062		34.541364		-0.352577		1.266943		1.875420		4.425457		28.381099		1.822950		
